<mxfile host="65bd71144e">
    <diagram id="t0Pxb939j1Yd01u77Vw8" name="Page-1">
        <mxGraphModel dx="788" dy="571" grid="1" gridSize="10" guides="1" tooltips="1" connect="1" arrows="1" fold="1" page="1" pageScale="1" pageWidth="850" pageHeight="1100" math="0" shadow="0">
            <root>
                <mxCell id="0"/>
                <mxCell id="1" parent="0"/>
                <mxCell id="2" value="start&lt;br&gt;&lt;br&gt;00" style="ellipse;whiteSpace=wrap;html=1;" vertex="1" parent="1">
                    <mxGeometry x="475" y="310" width="80" height="80" as="geometry"/>
                </mxCell>
                <mxCell id="3" value="Exit&lt;br&gt;&lt;br&gt;10" style="ellipse;whiteSpace=wrap;html=1;" vertex="1" parent="1">
                    <mxGeometry x="310" y="460" width="80" height="80" as="geometry"/>
                </mxCell>
                <mxCell id="4" value="Park&lt;br&gt;&lt;br&gt;10" style="ellipse;whiteSpace=wrap;html=1;" vertex="1" parent="1">
                    <mxGeometry x="620" y="440" width="80" height="80" as="geometry"/>
                </mxCell>
                <mxCell id="5" value="Full&lt;br&gt;&lt;br&gt;01" style="ellipse;whiteSpace=wrap;html=1;" vertex="1" parent="1">
                    <mxGeometry x="475" y="130" width="80" height="80" as="geometry"/>
                </mxCell>
                <mxCell id="9" value="" style="curved=1;endArrow=classic;html=1;exitX=1;exitY=1;exitDx=0;exitDy=0;entryX=0;entryY=0.5;entryDx=0;entryDy=0;" edge="1" parent="1" source="2" target="4">
                    <mxGeometry width="50" height="50" relative="1" as="geometry">
                        <mxPoint x="580" y="560" as="sourcePoint"/>
                        <mxPoint x="580" y="520" as="targetPoint"/>
                        <Array as="points">
                            <mxPoint x="550" y="430"/>
                            <mxPoint x="560" y="450"/>
                        </Array>
                    </mxGeometry>
                </mxCell>
                <mxCell id="11" value="" style="curved=1;endArrow=classic;html=1;entryX=1;entryY=0.5;entryDx=0;entryDy=0;" edge="1" parent="1" target="2">
                    <mxGeometry width="50" height="50" relative="1" as="geometry">
                        <mxPoint x="690" y="450" as="sourcePoint"/>
                        <mxPoint x="590" y="340" as="targetPoint"/>
                        <Array as="points">
                            <mxPoint x="700" y="440"/>
                            <mxPoint x="660" y="400"/>
                        </Array>
                    </mxGeometry>
                </mxCell>
                <mxCell id="12" value="" style="curved=1;endArrow=classic;html=1;entryX=1;entryY=0.5;entryDx=0;entryDy=0;exitX=1;exitY=0;exitDx=0;exitDy=0;" edge="1" parent="1" source="2" target="5">
                    <mxGeometry width="50" height="50" relative="1" as="geometry">
                        <mxPoint x="745" y="310" as="sourcePoint"/>
                        <mxPoint x="610" y="210" as="targetPoint"/>
                        <Array as="points">
                            <mxPoint x="600" y="240"/>
                        </Array>
                    </mxGeometry>
                </mxCell>
                <mxCell id="13" value="" style="curved=1;endArrow=classic;html=1;entryX=0;entryY=0;entryDx=0;entryDy=0;exitX=0;exitY=0.5;exitDx=0;exitDy=0;" edge="1" parent="1" source="5" target="2">
                    <mxGeometry width="50" height="50" relative="1" as="geometry">
                        <mxPoint x="553.2842712474619" y="331.7157287525381" as="sourcePoint"/>
                        <mxPoint x="565" y="190" as="targetPoint"/>
                        <Array as="points">
                            <mxPoint x="410" y="250"/>
                        </Array>
                    </mxGeometry>
                </mxCell>
                <mxCell id="14" value="" style="curved=1;endArrow=classic;html=1;exitX=1;exitY=1;exitDx=0;exitDy=0;entryX=0;entryY=1;entryDx=0;entryDy=0;" edge="1" parent="1" source="3" target="2">
                    <mxGeometry width="50" height="50" relative="1" as="geometry">
                        <mxPoint x="430" y="410" as="sourcePoint"/>
                        <mxPoint x="460" y="380" as="targetPoint"/>
                        <Array as="points">
                            <mxPoint x="520" y="470"/>
                            <mxPoint x="430" y="430"/>
                        </Array>
                    </mxGeometry>
                </mxCell>
                <mxCell id="15" value="" style="curved=1;endArrow=classic;html=1;exitX=0;exitY=0.5;exitDx=0;exitDy=0;entryX=0;entryY=0;entryDx=0;entryDy=0;" edge="1" parent="1" source="2" target="3">
                    <mxGeometry width="50" height="50" relative="1" as="geometry">
                        <mxPoint x="350" y="310" as="sourcePoint"/>
                        <mxPoint x="320" y="410" as="targetPoint"/>
                        <Array as="points">
                            <mxPoint x="380" y="380"/>
                        </Array>
                    </mxGeometry>
                </mxCell>
                <mxCell id="16" value="010" style="text;html=1;strokeColor=none;fillColor=none;align=center;verticalAlign=middle;whiteSpace=wrap;rounded=0;" vertex="1" parent="1">
                    <mxGeometry x="540" y="465" width="60" height="30" as="geometry"/>
                </mxCell>
                <mxCell id="17" value="X00" style="text;html=1;strokeColor=none;fillColor=none;align=center;verticalAlign=middle;whiteSpace=wrap;rounded=0;" vertex="1" parent="1">
                    <mxGeometry x="650" y="380" width="60" height="30" as="geometry"/>
                </mxCell>
                <mxCell id="18" value="X00" style="text;html=1;strokeColor=none;fillColor=none;align=center;verticalAlign=middle;whiteSpace=wrap;rounded=0;" vertex="1" parent="1">
                    <mxGeometry x="430" y="490" width="60" height="30" as="geometry"/>
                </mxCell>
                <mxCell id="19" value="110" style="text;html=1;strokeColor=none;fillColor=none;align=center;verticalAlign=middle;whiteSpace=wrap;rounded=0;" vertex="1" parent="1">
                    <mxGeometry x="580" y="230" width="60" height="30" as="geometry"/>
                </mxCell>
                <mxCell id="21" value="X01" style="text;html=1;strokeColor=none;fillColor=none;align=center;verticalAlign=middle;whiteSpace=wrap;rounded=0;" vertex="1" parent="1">
                    <mxGeometry x="330" y="380" width="60" height="30" as="geometry"/>
                </mxCell>
                <mxCell id="22" value="100" style="text;html=1;strokeColor=none;fillColor=none;align=center;verticalAlign=middle;whiteSpace=wrap;rounded=0;" vertex="1" parent="1">
                    <mxGeometry x="380" y="220" width="60" height="30" as="geometry"/>
                </mxCell>
                <mxCell id="24" value="&lt;font style=&quot;font-size: 15px;&quot;&gt;FSM Entries:&lt;br&gt;&lt;br&gt;{isFull, EnterSensor, Exit Sensor}&lt;/font&gt;" style="text;html=1;strokeColor=none;fillColor=none;align=center;verticalAlign=middle;whiteSpace=wrap;rounded=0;" vertex="1" parent="1">
                    <mxGeometry x="20" y="80" width="250" height="110" as="geometry"/>
                </mxCell>
                <mxCell id="25" value="&lt;font style=&quot;font-size: 15px;&quot;&gt;FSM Outputs:&lt;br&gt;&lt;br&gt;{Full light, Door open light}&lt;/font&gt;" style="text;html=1;strokeColor=none;fillColor=none;align=center;verticalAlign=middle;whiteSpace=wrap;rounded=0;" vertex="1" parent="1">
                    <mxGeometry x="20" y="220" width="250" height="110" as="geometry"/>
                </mxCell>
            </root>
        </mxGraphModel>
    </diagram>
</mxfile>